<svg width="31" height="31" viewBox="0 0 31 31" fill="none" xmlns="http://www.w3.org/2000/svg">
<path d="M15.5 8.68C14.1511 8.68 12.8326 9.07999 11.711 9.82938C10.5895 10.5788 9.71533 11.6439 9.19914 12.8901C8.68295 14.1363 8.54789 15.5076 8.81104 16.8305C9.0742 18.1535 9.72374 19.3687 10.6775 20.3225C11.6313 21.2763 12.8465 21.9258 14.1695 22.189C15.4924 22.4521 16.8637 22.317 18.1099 21.8009C19.3561 21.2847 20.4212 20.4105 21.1706 19.289C21.92 18.1674 22.32 16.8489 22.32 15.5C22.3179 13.6919 21.5988 11.9584 20.3202 10.6798C19.0417 9.40124 17.3081 8.68205 15.5 8.68ZM15.5 21.08C14.3964 21.08 13.3175 20.7527 12.3999 20.1396C11.4823 19.5265 10.7671 18.655 10.3448 17.6354C9.92241 16.6158 9.81191 15.4938 10.0272 14.4114C10.2425 13.329 10.774 12.3347 11.5543 11.5543C12.3347 10.774 13.329 10.2425 14.4114 10.0272C15.4938 9.81191 16.6158 9.92241 17.6354 10.3448C18.655 10.7671 19.5265 11.4823 20.1396 12.3999C20.7527 13.3175 21.08 14.3964 21.08 15.5C21.08 16.9799 20.4921 18.3992 19.4457 19.4457C18.3992 20.4921 16.9799 21.08 15.5 21.08ZM22.94 0H8.06C5.92311 0.00246138 3.87445 0.852428 2.36344 2.36344C0.852428 3.87445 0.00246138 5.92311 0 8.06V22.94C0.00246138 25.0769 0.852428 27.1256 2.36344 28.6366C3.87445 30.1476 5.92311 30.9975 8.06 31H22.94C25.0769 30.9975 27.1256 30.1476 28.6366 28.6366C30.1476 27.1256 30.9975 25.0769 31 22.94V8.06C30.9975 5.92311 30.1476 3.87445 28.6366 2.36344C27.1256 0.852428 25.0769 0.00246138 22.94 0ZM29.76 22.94C29.7579 24.7481 29.0388 26.4816 27.7602 27.7602C26.4816 29.0388 24.7481 29.7579 22.94 29.76H8.06C6.25185 29.7579 4.51835 29.0388 3.2398 27.7602C1.96124 26.4816 1.24205 24.7481 1.24 22.94V8.06C1.24205 6.25185 1.96124 4.51835 3.2398 3.2398C4.51835 1.96124 6.25185 1.24205 8.06 1.24H22.94C24.7481 1.24205 26.4816 1.96124 27.7602 3.2398C29.0388 4.51835 29.7579 6.25185 29.76 8.06V22.94ZM24.8 7.44C24.8 7.68525 24.7273 7.92499 24.591 8.12891C24.4548 8.33282 24.2611 8.49176 24.0345 8.58561C23.8079 8.67946 23.5586 8.70402 23.3181 8.65617C23.0776 8.60833 22.8566 8.49023 22.6832 8.31681C22.5098 8.1434 22.3917 7.92245 22.3438 7.68191C22.296 7.44138 22.3205 7.19205 22.4144 6.96547C22.5082 6.73889 22.6672 6.54523 22.8711 6.40898C23.075 6.27273 23.3148 6.2 23.56 6.2C23.8889 6.2 24.2043 6.33064 24.4368 6.56319C24.6694 6.79573 24.8 7.11113 24.8 7.44Z" fill="#23443D"/>
</svg>
