<svg width="19" height="13" viewBox="0 0 19 13" fill="none" xmlns="http://www.w3.org/2000/svg">
<path fill-rule="evenodd" clip-rule="evenodd" d="M17.675 0.400481C17.9293 0.656694 18.0721 1.00415 18.0721 1.36643C18.0721 1.72872 17.9293 2.07617 17.675 2.33239L7.51027 12.573C7.37594 12.7084 7.21646 12.8158 7.04094 12.889C6.86541 12.9623 6.67728 13 6.48729 13C6.2973 13 6.10916 12.9623 5.93364 12.889C5.75811 12.8158 5.59863 12.7084 5.4643 12.573L0.414015 7.48596C0.28449 7.35992 0.181175 7.20916 0.110101 7.04247C0.039027 6.87578 0.00161595 6.6965 5.12035e-05 6.51509C-0.00151354 6.33367 0.0327994 6.15376 0.100988 5.98585C0.169176 5.81794 0.269874 5.6654 0.397206 5.53711C0.524538 5.40883 0.675954 5.30738 0.84262 5.23869C1.00928 5.16999 1.18786 5.13542 1.36793 5.137C1.548 5.13857 1.72595 5.17626 1.89141 5.24787C2.05686 5.31947 2.20651 5.42356 2.33161 5.55405L6.48684 9.7403L15.7565 0.400481C15.8825 0.273518 16.032 0.172801 16.1966 0.104085C16.3612 0.0353685 16.5376 0 16.7158 0C16.894 0 17.0704 0.0353685 17.235 0.104085C17.3996 0.172801 17.5491 0.273518 17.675 0.400481Z" fill="white"/>
</svg>
